pose19.1
version=1
nRows=4
nColumns=213
inDegrees=yes
endheader
time	platform_rx	platform_ry	platform_rz	platform_ty	pelvis_tilt	pelvis_list	pelvis_rotation	pelvis_tx	pelvis_ty	pelvis_tz	hip_flexion_r	hip_adduction_r	hip_rotation_r	knee_angle_r	knee_angle_r_beta	ankle_angle_r	subtalar_angle_r	mtp_angle_r	hip_flexion_l	hip_adduction_l	hip_rotation_l	knee_angle_l	knee_angle_l_beta	ankle_angle_l	subtalar_angle_l	mtp_angle_l	lumbar_extension	lumbar_bending	lumbar_rotation	arm_flex_r	arm_add_r	arm_rot_r	elbow_flex_r	pro_sup_r	wrist_flex_r	wrist_dev_r	arm_flex_l	arm_add_l	arm_rot_l	elbow_flex_l	pro_sup_l	wrist_flex_l	wrist_dev_l	platform_rx_u	platform_ry_u	platform_rz_u	platform_ty_u	pelvis_tilt_u	pelvis_list_u	pelvis_rotation_u	pelvis_tx_u	pelvis_ty_u	pelvis_tz_u	hip_flexion_r_u	hip_adduction_r_u	hip_rotation_r_u	knee_angle_r_u	knee_angle_r_beta_u	ankle_angle_r_u	subtalar_angle_r_u	mtp_angle_r_u	hip_flexion_l_u	hip_adduction_l_u	hip_rotation_l_u	knee_angle_l_u	knee_angle_l_beta_u	ankle_angle_l_u	subtalar_angle_l_u	mtp_angle_l_u	lumbar_extension_u	lumbar_bending_u	lumbar_rotation_u	arm_flex_r_u	arm_add_r_u	arm_rot_r_u	elbow_flex_r_u	pro_sup_r_u	wrist_flex_r_u	wrist_dev_r_u	arm_flex_l_u	arm_add_l_u	arm_rot_l_u	elbow_flex_l_u	pro_sup_l_u	wrist_flex_l_u	wrist_dev_l_u	addbrev_r.activation	addlong_r.activation	addlong_r.fiber_length	addmagDist_r.activation	addmagIsch_r.activation	addmagIsch_r.fiber_length	addmagMid_r.activation	addmagProx_r.activation	bflh_r.activation	bflh_r.fiber_length	bfsh_r.activation	edl_r.activation	edl_r.fiber_length	ehl_r.activation	ehl_r.fiber_length	fdl_r.activation	fdl_r.fiber_length	fhl_r.activation	fhl_r.fiber_length	gaslat_r.activation	gaslat_r.fiber_length	gasmed_r.activation	gasmed_r.fiber_length	glmax1_r.activation	glmax2_r.activation	glmax3_r.activation	glmed1_r.activation	glmed2_r.activation	glmed3_r.activation	glmin1_r.activation	glmin2_r.activation	glmin3_r.activation	glmin3_r.fiber_length	grac_r.activation	iliacus_r.activation	perbrev_r.activation	perbrev_r.fiber_length	perlong_r.activation	perlong_r.fiber_length	piri_r.activation	piri_r.fiber_length	psoas_r.activation	recfem_r.activation	recfem_r.fiber_length	sart_r.activation	semimem_r.activation	semimem_r.fiber_length	semiten_r.activation	semiten_r.fiber_length	soleus_r.activation	soleus_r.fiber_length	tfl_r.activation	tfl_r.fiber_length	tibant_r.activation	tibant_r.fiber_length	tibpost_r.activation	tibpost_r.fiber_length	vasint_r.activation	vasint_r.fiber_length	vaslat_r.activation	vaslat_r.fiber_length	vasmed_r.activation	vasmed_r.fiber_length	addbrev_l.activation	addlong_l.activation	addlong_l.fiber_length	addmagDist_l.activation	addmagIsch_l.activation	addmagIsch_l.fiber_length	addmagMid_l.activation	addmagProx_l.activation	bflh_l.activation	bflh_l.fiber_length	bfsh_l.activation	edl_l.activation	edl_l.fiber_length	ehl_l.activation	ehl_l.fiber_length	fdl_l.activation	fdl_l.fiber_length	fhl_l.activation	fhl_l.fiber_length	gaslat_l.activation	gaslat_l.fiber_length	gasmed_l.activation	gasmed_l.fiber_length	glmax1_l.activation	glmax2_l.activation	glmax3_l.activation	glmed1_l.activation	glmed2_l.activation	glmed3_l.activation	glmin1_l.activation	glmin2_l.activation	glmin3_l.activation	glmin3_l.fiber_length	grac_l.activation	iliacus_l.activation	perbrev_l.activation	perbrev_l.fiber_length	perlong_l.activation	perlong_l.fiber_length	piri_l.activation	piri_l.fiber_length	psoas_l.activation	recfem_l.activation	recfem_l.fiber_length	sart_l.activation	semimem_l.activation	semimem_l.fiber_length	semiten_l.activation	semiten_l.fiber_length	soleus_l.activation	soleus_l.fiber_length	tfl_l.activation	tfl_l.fiber_length	tibant_l.activation	tibant_l.fiber_length	tibpost_l.activation	tibpost_l.fiber_length	vasint_l.activation	vasint_l.fiber_length	vaslat_l.activation	vaslat_l.fiber_length	vasmed_l.activation	vasmed_l.fiber_length
      0.00215524	     20.00000000	     -0.00000000	     -0.00000000	      0.25000000	    -26.61534334	     -0.00000000	     -0.00000000	     -0.04498861	      0.56909102	     -0.00000000	     99.93406765	    -18.06729395	     -1.09537795	    101.49627116	    101.49627116	     28.58540643	     -0.00000000	     -0.00000000	     99.93406564	    -18.06729061	     -1.09537795	    101.49628517	    101.49628517	     28.58538548	      0.00000000	     -0.00000000	     -0.08121617	      0.00000001	      0.00000000	     89.96982813	     -0.00084053	     89.83620729	      0.14919777	      0.14722423	      0.00000000	      0.00000000	     89.96990560	     -0.00083824	     89.82835927	      0.14919744	      0.14722428	      0.00000000	      0.00000000	     -0.00000000	     -0.00000000	     -0.00000000	     -0.00000000	     59.94114852	     -0.00000397	     -0.00000156	      0.01055809	      0.08449063	     -0.00000001	    -61.24054198	     -3.99687792	     10.65810845	     -5.55604059	     -5.55604059	   -381.11842779	     -0.00000000	     -0.00000000	    -61.24054571	     -3.99687610	     10.65811147	     -5.55606182	     -5.55606182	   -381.11818745	      0.00000000	      0.00000000	    -75.30055412	      0.00000566	      0.00000058	     16.49676106	     -0.75196637	     -0.49334767	      2.10373819	      0.30812904	      0.00000000	      0.00000000	     16.49662828	     -0.75187669	     -0.49336018	      2.10343316	      0.30817982	      0.00000000	      0.00000000	      0.01000000	      0.01000000	      0.10109665	      0.01000000	      0.01000000	      0.22261812	      0.01000000	      0.01000000	      0.01000000	      0.12272934	      0.01000000	      0.01000000	      0.05139067	      0.01000000	      0.05884221	      0.01000000	      0.04762574	      0.01000000	      0.05629489	      0.01000000	      0.05137905	      0.01000000	      0.03868781	      0.01000000	      0.01000000	      0.01000000	      0.01000000	      0.01000000	      0.01000000	      0.01000000	      0.01000000	      0.01000000	      0.04473434	      0.01000000	      0.01000000	      0.01000000	      0.05077191	      0.01000000	      0.05747110	      0.01000000	      0.03309299	      0.01000000	      0.01000000	      0.05142444	      0.01000000	      0.01000000	      0.07817218	      0.01000000	      0.23007991	      0.01000000	      0.06121505	      0.01000000	      0.02401564	      0.01000000	      0.04503118	      0.01000000	      0.04205049	      0.01000000	      0.13779813	      0.01000000	      0.13426836	      0.01000000	      0.13172064	      0.01000000	      0.01000000	      0.10109664	      0.01000000	      0.01000000	      0.22261812	      0.01000000	      0.01000000	      0.01000000	      0.12272934	      0.01000000	      0.01000000	      0.05139069	      0.01000000	      0.05884222	      0.01000000	      0.04762574	      0.01000000	      0.05629489	      0.01000000	      0.05137903	      0.01000000	      0.03868779	      0.01000000	      0.01000000	      0.01000000	      0.01000000	      0.01000000	      0.01000000	      0.01000000	      0.01000000	      0.01000000	      0.04473434	      0.01000000	      0.01000000	      0.01000000	      0.05077191	      0.01000000	      0.05747110	      0.01000000	      0.03309299	      0.01000000	      0.01000000	      0.05142444	      0.01000000	      0.01000000	      0.07817217	      0.01000000	      0.23007990	      0.01000000	      0.06121505	      0.01000000	      0.02401564	      0.01000000	      0.04503119	      0.01000000	      0.04205049	      0.01000000	      0.13779813	      0.01000000	      0.13426836	      0.01000000	      0.13172065
      0.00287365	     20.00000000	     -0.00000000	     -0.00000000	      0.25000000	    -26.56513034	     -0.00000001	     -0.00000000	     -0.04497977	      0.56916186	     -0.00000000	     99.88269257	    -18.07063747	     -1.08651288	    101.49147188	    101.49147188	     28.26783592	     -0.00000000	     -0.00000000	     99.88269056	    -18.07063413	     -1.08651288	    101.49148587	    101.49148587	     28.26781517	      0.00000000	     -0.00000000	     -0.14429563	      0.00000001	      0.00000000	     89.98364497	     -0.00147008	     89.83579464	      0.15095901	      0.14748046	      0.00000000	      0.00000000	     89.98372233	     -0.00146772	     89.82794661	      0.15095843	      0.14748056	      0.00000000	      0.00000000	     -0.00000000	     -0.00000000	     -0.00000000	     -0.00000000	     79.83903797	     -0.00000525	     -0.00000210	      0.01403102	      0.11272157	     -0.00000002	    -81.79616680	     -5.30938897	     14.00059596	     -7.85415946	     -7.85415946	   -502.43909713	      0.00000000	     -0.00000000	    -81.79617189	     -5.30938662	     14.00059991	     -7.85418720	     -7.85418720	   -502.43877623	      0.00000000	      0.00000000	   -100.29660068	      0.00000750	      0.00000082	     21.96550401	     -1.00050074	     -0.65525884	      2.79894388	      0.40487603	      0.00000000	      0.00000000	     21.96532745	     -1.00038195	     -0.65527546	      2.79853960	      0.40494332	     -0.00000000	      0.00000000	      0.01000000	      0.01000000	      0.10108713	      0.01000000	      0.01000000	      0.22259134	      0.01000000	      0.01000000	      0.01000000	      0.12271660	      0.01000000	      0.01000000	      0.05152260	      0.01000000	      0.05900244	      0.01000000	      0.04762254	      0.01000000	      0.05628326	      0.01000000	      0.05132211	      0.01000000	      0.03863826	      0.01000000	      0.01000000	      0.01000000	      0.01000000	      0.01000000	      0.01000000	      0.01000000	      0.01000000	      0.01000000	      0.04472417	      0.01000000	      0.01000000	      0.01000000	      0.05076252	      0.01000000	      0.05746034	      0.01000000	      0.03308563	      0.01000000	      0.01000000	      0.05143268	      0.01000000	      0.01000000	      0.07816435	      0.01000000	      0.23005801	      0.01000000	      0.06112399	      0.01000000	      0.02401564	      0.01000000	      0.04521955	      0.01000000	      0.04204432	      0.01000000	      0.13779698	      0.01000000	      0.13426728	      0.01000000	      0.13171966	      0.01000000	      0.01000000	      0.10108713	      0.01000000	      0.01000000	      0.22259134	      0.01000000	      0.01000000	      0.01000000	      0.12271659	      0.01000000	      0.01000000	      0.05152262	      0.01000000	      0.05900245	      0.01000000	      0.04762254	      0.01000000	      0.05628326	      0.01000000	      0.05132209	      0.01000000	      0.03863824	      0.01000000	      0.01000000	      0.01000000	      0.01000000	      0.01000000	      0.01000000	      0.01000000	      0.01000000	      0.01000000	      0.04472417	      0.01000000	      0.01000000	      0.01000000	      0.05076252	      0.01000000	      0.05746034	      0.01000000	      0.03308563	      0.01000000	      0.01000000	      0.05143269	      0.01000000	      0.01000000	      0.07816434	      0.01000000	      0.23005800	      0.01000000	      0.06112398	      0.01000000	      0.02401564	      0.01000000	      0.04521957	      0.01000000	      0.04204431	      0.01000000	      0.13779699	      0.01000000	      0.13426729	      0.01000000	      0.13171967
      0.00397186	     20.00000000	     -0.00000000	     -0.00000000	      0.25000000	    -26.46079341	     -0.00000001	     -0.00000001	     -0.04496149	      0.56930939	     -0.00000000	     99.77554314	    -18.07756112	     -1.06844296	    101.48064723	    101.48064723	     27.61696587	     -0.00000000	     -0.00000000	     99.77554111	    -18.07755777	     -1.06844296	    101.48066118	    101.48066118	     27.61694555	      0.00000000	     -0.00000000	     -0.27536694	      0.00000002	      0.00000000	     90.01234501	     -0.00277678	     89.83493973	      0.15461448	      0.14800553	      0.00000000	      0.00000000	     90.01242214	     -0.00277426	     89.82709167	      0.15461336	      0.14800571	     -0.00000000	      0.00000000	     -0.00000000	     -0.00000000	     -0.00000000	     -0.00000000	    110.15292965	     -0.00000717	     -0.00000296	      0.01923281	      0.15599032	     -0.00000002	   -113.36813962	     -7.29604994	     18.85464835	    -11.99271650	    -11.99271650	   -681.66007778	     -0.00000000	      0.00000000	   -113.36814694	     -7.29604685	     18.85465365	    -11.99275338	    -11.99275338	   -681.65963344	      0.00000000	     -0.00000000	   -138.37703247	      0.00001026	      0.00000124	     30.29614383	     -1.37900520	     -0.90160254	      3.85767542	      0.55169695	     -0.00000000	      0.00000000	     30.29590062	     -1.37884209	     -0.90162545	      3.85712011	      0.55178938	     -0.00000000	      0.00000000	      0.01000000	      0.01000000	      0.10106516	      0.01000000	      0.01000000	      0.22253171	      0.01000000	      0.01000000	      0.01000000	      0.12268655	      0.01000000	      0.01000000	      0.05184100	      0.01000000	      0.05937163	      0.01000000	      0.04761393	      0.01000000	      0.05625135	      0.01000000	      0.05117034	      0.01000000	      0.03850792	      0.01000000	      0.01000000	      0.01000000	      0.01000000	      0.01000000	      0.01000000	      0.01000000	      0.01000000	      0.01000000	      0.04470123	      0.01000000	      0.01000000	      0.01000000	      0.05073890	      0.01000000	      0.05743147	      0.01000000	      0.03306752	      0.01000000	      0.01000000	      0.05145593	      0.01000000	      0.01000000	      0.07814437	      0.01000000	      0.23000950	      0.01000000	      0.06092558	      0.01000000	      0.02401564	      0.01000000	      0.04563220	      0.01000000	      0.04202767	      0.01000000	      0.13779430	      0.01000000	      0.13426473	      0.01000000	      0.13171735	      0.01000000	      0.01000000	      0.10106515	      0.01000000	      0.01000000	      0.22253171	      0.01000000	      0.01000000	      0.01000000	      0.12268654	      0.01000000	      0.01000000	      0.05184102	      0.01000000	      0.05937164	      0.01000000	      0.04761393	      0.01000000	      0.05625135	      0.01000000	      0.05117033	      0.01000000	      0.03850790	      0.01000000	      0.01000000	      0.01000000	      0.01000000	      0.01000000	      0.01000000	      0.01000000	      0.01000000	      0.01000000	      0.04470123	      0.01000000	      0.01000000	      0.01000000	      0.05073890	      0.01000000	      0.05743147	      0.01000000	      0.03306752	      0.01000000	      0.01000000	      0.05145594	      0.01000000	      0.01000000	      0.07814437	      0.01000000	      0.23000949	      0.01000000	      0.06092557	      0.01000000	      0.02401564	      0.01000000	      0.04563222	      0.01000000	      0.04202767	      0.01000000	      0.13779430	      0.01000000	      0.13426474	      0.01000000	      0.13171735
      0.00507006	     20.00000000	     -0.00000000	     -0.00000000	      0.25000000	    -26.32323700	     -0.00000002	     -0.00000001	     -0.04493759	      0.56950454	     -0.00000000	     99.63362646	    -18.08665577	     -1.04522156	    101.46482044	    101.46482044	     26.77334337	     -0.00000000	     -0.00000000	     99.63362443	    -18.08665242	     -1.04522154	    101.46483435	    101.46483435	     26.77332360	      0.00000000	     -0.00000000	     -0.44816708	      0.00000003	      0.00000000	     90.05017677	     -0.00449879	     89.83381400	      0.15943167	      0.14869465	      0.00000000	      0.00000000	     90.05025360	     -0.00449607	     89.82596592	      0.15942986	      0.14869495	     -0.00000000	      0.00000000	     -0.00000000	      0.00000000	      0.00000000	     -0.00000000	    140.34423257	     -0.00000906	     -0.00000386	      0.02426658	      0.19943527	     -0.00000003	   -145.12134511	     -9.26366870	     23.37875642	    -16.97922803	    -16.97922803	   -853.49747521	     -0.00000000	      0.00000000	   -145.12135482	     -9.26366498	     23.37876305	    -16.97927295	    -16.97927295	   -853.49690717	      0.00000000	      0.00000000	   -176.29965862	      0.00001298	      0.00000173	     38.59888760	     -1.75719759	     -1.14896173	      4.91562958	      0.70520623	      0.00000000	      0.00000000	     38.59857765	     -1.75698945	     -1.14899104	      4.91492119	      0.70532426	     -0.00000000	      0.00000000	      0.01000000	      0.01000000	      0.10103398	      0.01000000	      0.01000000	      0.22248859	      0.01000000	      0.01000000	      0.01000000	      0.12264315	      0.01000000	      0.01000000	      0.05228603	      0.01000000	      0.05987775	      0.01000000	      0.04759965	      0.01000000	      0.05619617	      0.01000000	      0.05097662	      0.01000000	      0.03834691	      0.01000000	      0.01000000	      0.01000000	      0.01000000	      0.01000000	      0.01000000	      0.01000000	      0.01000000	      0.01000000	      0.04466937	      0.01000000	      0.01000000	      0.01000000	      0.05070232	      0.01000000	      0.05738309	      0.01000000	      0.03304053	      0.01000000	      0.01000000	      0.05149781	      0.01000000	      0.01000000	      0.07811319	      0.01000000	      0.22994288	      0.01000000	      0.06065689	      0.01000000	      0.02401564	      0.01000000	      0.04618895	      0.01000000	      0.04199946	      0.01000000	      0.13779027	      0.01000000	      0.13426087	      0.01000000	      0.13171387	      0.01000000	      0.01000000	      0.10103397	      0.01000000	      0.01000000	      0.22248859	      0.01000000	      0.01000000	      0.01000000	      0.12264314	      0.01000000	      0.01000000	      0.05228604	      0.01000000	      0.05987776	      0.01000000	      0.04759965	      0.01000000	      0.05619616	      0.01000000	      0.05097661	      0.01000000	      0.03834689	      0.01000000	      0.01000000	      0.01000000	      0.01000000	      0.01000000	      0.01000000	      0.01000000	      0.01000000	      0.01000000	      0.04466937	      0.01000000	      0.01000000	      0.01000000	      0.05070232	      0.01000000	      0.05738309	      0.01000000	      0.03304053	      0.01000000	      0.01000000	      0.05149782	      0.01000000	      0.01000000	      0.07811318	      0.01000000	      0.22994287	      0.01000000	      0.06065689	      0.01000000	      0.02401564	      0.01000000	      0.04618896	      0.01000000	      0.04199946	      0.01000000	      0.13779027	      0.01000000	      0.13426088	      0.01000000	      0.13171387
